<svg width="24" height="24" viewBox="0 0 24 24" fill="none" xmlns="http://www.w3.org/2000/svg">
<path fill-rule="evenodd" clip-rule="evenodd" d="M11 7H19C20.0609 7 21.0783 7.42143 21.8284 8.17157C22.5786 8.92172 23 9.93913 23 11V20H21V17H3V20H1V5H3V14H11V7ZM10 10C10 10.394 9.9224 10.7841 9.77164 11.1481C9.62087 11.512 9.3999 11.8427 9.12132 12.1213C8.84274 12.3999 8.51203 12.6209 8.14805 12.7716C7.78407 12.9224 7.39397 13 7 13C6.60603 13 6.21593 12.9224 5.85195 12.7716C5.48797 12.6209 5.15726 12.3999 4.87868 12.1213C4.6001 11.8427 4.37913 11.512 4.22836 11.1481C4.0776 10.7841 4 10.394 4 10C4 9.20435 4.31607 8.44129 4.87868 7.87868C5.44129 7.31607 6.20435 7 7 7C7.79565 7 8.55871 7.31607 9.12132 7.87868C9.68393 8.44129 10 9.20435 10 10Z" fill="#333333"/>
</svg>
