<svg width="21" height="20" viewBox="0 0 21 20" fill="none" xmlns="http://www.w3.org/2000/svg">
<g clip-path="url(#clip0_7_22)">
<path d="M20.0186 5.88005C19.9718 4.81738 19.7999 4.0868 19.5537 3.45374C19.2998 2.78176 18.9091 2.18014 18.3972 1.68002C17.8971 1.1721 17.2915 0.777435 16.6273 0.527447C15.9906 0.281274 15.2638 0.109427 14.2011 0.0625732C13.1305 0.0117516 12.7906 0 10.0753 0C7.3599 0 7.02002 0.0117516 5.95338 0.0586052C4.8907 0.105459 4.16012 0.277459 3.52722 0.523479C2.85509 0.777435 2.25347 1.16814 1.75335 1.68002C1.24544 2.18014 0.85092 2.78573 0.60078 3.44992C0.354608 4.0868 0.18276 4.81341 0.135907 5.87609C0.0850853 6.9467 0.0733337 7.28658 0.0733337 10.002C0.0733337 12.7173 0.0850853 13.0572 0.131939 14.1239C0.178792 15.1865 0.350792 15.9171 0.596964 16.5502C0.85092 17.2221 1.24544 17.8238 1.75335 18.3239C2.25347 18.8318 2.85906 19.2265 3.52325 19.4765C4.16012 19.7226 4.88674 19.8945 5.94956 19.9413C7.01606 19.9883 7.35609 19.9999 10.0715 19.9999C12.7868 19.9999 13.1267 19.9883 14.1933 19.9413C15.256 19.8945 15.9866 19.7226 16.6195 19.4765C17.9636 18.9568 19.0263 17.8941 19.5459 16.5502C19.792 15.9133 19.964 15.1865 20.0108 14.1239C20.0577 13.0572 20.0694 12.7173 20.0694 10.002C20.0694 7.28658 20.0655 6.9467 20.0186 5.88005ZM18.2176 14.0457C18.1745 15.0225 18.0105 15.5499 17.8737 15.9015C17.5377 16.7728 16.8461 17.4643 15.9749 17.8004C15.6232 17.9372 15.092 18.1012 14.119 18.1441C13.0641 18.1911 12.7478 18.2027 10.0792 18.2027C7.41072 18.2027 7.09038 18.1911 6.0393 18.1441C5.06255 18.1012 4.53511 17.9372 4.18348 17.8004C3.74989 17.6402 3.35522 17.3862 3.03488 17.0541C2.70278 16.7298 2.44882 16.3391 2.28858 15.9055C2.15183 15.5539 1.98777 15.0225 1.94488 14.0497C1.89788 12.9948 1.88628 12.6783 1.88628 10.0097C1.88628 7.34122 1.89788 7.02087 1.94488 5.96995C1.98777 4.99319 2.15183 4.46575 2.28858 4.11412C2.44882 3.68038 2.70278 3.28586 3.03884 2.96536C3.363 2.63327 3.7537 2.37931 4.18744 2.21921C4.53907 2.08247 5.07049 1.9184 6.04327 1.87537C7.09816 1.82851 7.41469 1.81676 10.0831 1.81676C12.7555 1.81676 13.0719 1.82851 14.123 1.87537C15.0997 1.9184 15.6272 2.08247 15.9788 2.21921C16.4124 2.37931 16.8071 2.63327 17.1274 2.96536C17.4595 3.28967 17.7135 3.68038 17.8737 4.11412C18.0105 4.46575 18.1745 4.99701 18.2176 5.96995C18.2644 7.02484 18.2762 7.34122 18.2762 10.0097C18.2762 12.6783 18.2644 12.9908 18.2176 14.0457Z" fill="#B72616"/>
<path d="M10.0753 4.86426C7.23891 4.86426 4.93759 7.16543 4.93759 10.002C4.93759 12.8385 7.23891 15.1397 10.0753 15.1397C12.9119 15.1397 15.213 12.8385 15.213 10.002C15.213 7.16543 12.9119 4.86426 10.0753 4.86426ZM10.0753 13.3347C8.2352 13.3347 6.7426 11.8422 6.7426 10.002C6.7426 8.16172 8.2352 6.66927 10.0753 6.66927C11.9156 6.66927 13.408 8.16172 13.408 10.002C13.408 11.8422 11.9156 13.3347 10.0753 13.3347Z" fill="#B72616"/>
<path d="M16.6157 4.6611C16.6157 5.32346 16.0787 5.86052 15.4161 5.86052C14.7538 5.86052 14.2167 5.32346 14.2167 4.6611C14.2167 3.99858 14.7538 3.46167 15.4161 3.46167C16.0787 3.46167 16.6157 3.99858 16.6157 4.6611Z" fill="#B72616"/>
</g>
<defs>
<clipPath id="clip0_7_22">
<rect width="20" height="20" fill="white" transform="translate(0.038208)"/>
</clipPath>
</defs>
</svg>
