<svg width="21" height="20" viewBox="0 0 21 20" fill="none"
    xmlns="http://www.w3.org/2000/svg">
    <g clip-path="url(#clip0_7_39)">
        <path d="M20.0332 20.0001V19.9993H20.0382V12.6643C20.0382 9.07593 19.2657 6.31177 15.0707 6.31177C13.054 6.31177 11.7007 7.41843 11.1482 8.4676H11.0899V6.64677H7.11237V19.9993H11.254V13.3876C11.254 11.6468 11.584 9.96343 13.7399 9.96343C15.8641 9.96343 15.8957 11.9501 15.8957 13.4993V20.0001H20.0332Z" fill="#6d4117"/>
        <path d="M0.368195 6.64746H4.51486V20H0.368195V6.64746Z" fill="#6d4117"/>
        <path d="M2.43987 0C1.11404 0 0.038208 1.07583 0.038208 2.40167C0.038208 3.7275 1.11404 4.82583 2.43987 4.82583C3.76571 4.82583 4.84154 3.7275 4.84154 2.40167C4.84071 1.07583 3.76487 0 2.43987 0V0Z" fill="#6d4117"/>
    </g>
    <defs>
        <clipPath id="clip0_7_39">
            <rect width="20" height="20" fill="white" transform="translate(0.038208)"/>
        </clipPath>
    </defs>
</svg>
