<svg width="40" height="40" viewBox="0 0 40 40" fill="none"
    xmlns="http://www.w3.org/2000/svg">
    <g clip-path="url(#clip0_0_734)">
        <path d="M20 7.10938C12.8921 7.10938 7.10938 12.8921 7.10938 20C7.10938 27.1079 12.8921 32.8906 20 32.8906C27.1079 32.8906 32.8906 27.1079 32.8906 20C32.8906 12.8921 27.1079 7.10938 20 7.10938ZM25.516 25.516C25.0583 25.9738 24.3166 25.9738 23.8589 25.516L19.1714 20.8285C19.0626 20.7197 18.9762 20.5906 18.9173 20.4484C18.8584 20.3063 18.8281 20.1539 18.8281 20V10.625C18.8281 9.97727 19.3523 9.45312 20 9.45312C20.6477 9.45312 21.1719 9.97727 21.1719 10.625V19.5148L25.516 23.8589C25.9738 24.3167 25.9738 25.0583 25.516 25.516Z" fill="#6d4117"/>
        <path d="M20 0C9.01484 0 0 9.01484 0 20C0 30.9852 9.01484 40 20 40C30.9852 40 40 30.9852 40 20C40 9.01484 30.9852 0 20 0ZM20 35.2344C11.6 35.2344 4.76562 28.4 4.76562 20C4.76562 11.6 11.6 4.76562 20 4.76562C28.4 4.76562 35.2344 11.6 35.2344 20C35.2344 28.4 28.4 35.2344 20 35.2344Z" fill="#6d4117"/>
    </g>
    <defs>
        <clipPath id="clip0_0_734">
            <rect width="40" height="40" fill="white"/>
        </clipPath>
    </defs>
</svg>
