<svg width="40" height="40" viewBox="0 0 40 40" fill="none"
    xmlns="http://www.w3.org/2000/svg">
    <path d="M14.44 31.3778C14.3015 31.4935 14.1386 31.5764 13.9636 31.6202C13.7885 31.664 13.6058 31.6676 13.4292 31.6307C13.2525 31.5938 13.0865 31.5174 12.9436 31.4072C12.8007 31.297 12.6846 31.1559 12.604 30.9945L9.59477 24.9688C5.56609 26.8808 2.77344 30.9881 2.77344 35.736V38.8033C2.77344 39.4635 3.30875 39.9988 3.96898 39.9988H18.9892V27.578L14.44 31.3778ZM30.5572 25.0418L27.6004 30.9922C27.5014 31.1915 27.3488 31.3592 27.1596 31.4764C26.9705 31.5937 26.7524 31.6558 26.5298 31.6557C26.2445 31.6557 25.9685 31.5536 25.7518 31.3679L21.3803 27.6209V39.9988H36.0318C36.692 39.9988 37.2273 39.4635 37.2273 38.8033V35.736C37.2273 31.0477 34.5043 26.9841 30.5572 25.0418ZM30.3998 36.4361H26.7024C26.0421 36.4361 25.5069 35.9008 25.5069 35.2405C25.5069 34.5802 26.0422 34.045 26.7024 34.045H30.3998C31.0601 34.045 31.5953 34.5803 31.5953 35.2405C31.5953 35.9008 31.06 36.4361 30.3998 36.4361Z" fill="#6d4117"/>
    <path d="M29.2631 16.9544C29.2631 16.5913 29.2415 16.2331 29.2005 15.8808C26.7201 17.3249 23.2063 17.8987 20.0344 17.8987H20.02C16.8355 17.8987 13.2911 17.3168 10.8038 15.8487C10.7598 16.2156 10.7377 16.5849 10.7376 16.9545C10.7376 19.6946 11.934 22.1603 13.8315 23.8577C13.1686 23.9046 12.5108 24.0071 11.865 24.1641L14.0676 28.5744L17.3521 25.8308C18.2114 26.0876 19.1035 26.2177 20.0004 26.2172C20.9786 26.2179 21.9506 26.063 22.8801 25.7584L26.1423 28.5545L28.3034 24.2055C27.6042 24.0248 26.89 23.9083 26.1697 23.8574C28.0669 22.1599 29.2631 19.6944 29.2631 16.9544ZM20.0358 10.2295H20.0188C15.7119 10.2295 11.6798 11.3537 10.1694 11.8285C11.0783 14.2479 15.5733 15.5076 20.02 15.5076H20.0344C24.5115 15.5076 29.0373 14.2305 29.9029 11.7786C28.2087 11.2764 24.1795 10.2295 20.0358 10.2295ZM33.8346 4.93166C33.7799 4.74401 33.68 4.57263 33.5437 4.43253C33.4074 4.29243 33.2389 4.18789 33.0528 4.12807L20.3933 0.0573626C20.1553 -0.0191209 19.8993 -0.0191209 19.6612 0.0573626L7.00163 4.12807C6.81556 4.18791 6.647 4.29245 6.5107 4.43255C6.37441 4.57264 6.27454 4.74401 6.21984 4.93166C6.16514 5.1193 6.15727 5.31749 6.19693 5.50888C6.23659 5.70027 6.32257 5.87902 6.44733 6.02947L9.38202 9.56807C10.9866 9.05611 15.2997 7.8383 20.0188 7.8383H20.0358C24.6248 7.8383 28.9552 8.98994 30.7106 9.52197L33.607 6.02947C33.7318 5.87903 33.8178 5.70029 33.8575 5.5089C33.8972 5.31751 33.8893 5.11931 33.8346 4.93166Z" fill="#6d4117"/>
</svg>
