<svg width="24" height="24" viewBox="0 0 24 24" fill="none" xmlns="http://www.w3.org/2000/svg">
<path fill-rule="evenodd" clip-rule="evenodd" d="M10.99 8C11.0136 8.40787 10.9536 8.81625 10.8137 9.20011C10.6739 9.58397 10.4571 9.93523 10.1767 10.2323C9.89625 10.5294 9.55809 10.7661 9.18294 10.9279C8.80779 11.0897 8.40355 11.1731 7.995 11.1731C7.58645 11.1731 7.18221 11.0897 6.80706 10.9279C6.43191 10.7661 6.09375 10.5294 5.81333 10.2323C5.5329 9.93523 5.31611 9.58397 5.17626 9.20011C5.0364 8.81625 4.97642 8.40787 5 8C5 7.20435 5.31607 6.44129 5.87868 5.87868C6.44129 5.31607 7.20435 5 8 5C8.79565 5 9.55871 5.31607 10.1213 5.87868C10.6839 6.44129 11 7.20435 11 8H10.99ZM18.99 8C19.0136 8.40787 18.9536 8.81625 18.8137 9.20011C18.6739 9.58397 18.4571 9.93523 18.1767 10.2323C17.8962 10.5294 17.5581 10.7661 17.1829 10.9279C16.8078 11.0897 16.4035 11.1731 15.995 11.1731C15.5865 11.1731 15.1822 11.0897 14.8071 10.9279C14.4319 10.7661 14.0938 10.5294 13.8133 10.2323C13.5329 9.93523 13.3161 9.58397 13.1763 9.20011C13.0364 8.81625 12.9764 8.40787 13 8C13 7.20435 13.3161 6.44129 13.8787 5.87868C14.4413 5.31607 15.2044 5 16 5C16.7956 5 17.5587 5.31607 18.1213 5.87868C18.6839 6.44129 19 7.20435 19 8H18.99ZM8 13C5.67 13 1 14.17 1 16.5V19H15V16.5C15 14.17 10.33 13 8 13ZM15.03 13.05C15.38 13.02 15.71 13 16 13C18.33 13 23 14.17 23 16.5V19H17V16.5C17 15.02 16.19 13.89 15.03 13.05Z" fill="#333333"/>
</svg>
